# xmcd
#
# Track frame offsets:
#	150
#	18644
#	33812
#	52410
#	70308
#	85082
#	102181
#	119095
#	136113
#	149309
#	164861
#	180907
#
# Disc length: 2663 seconds
#
# Revision: 0
# Processed by: cddbd v1.5.2PL0 Copyright (c) Steve Scherf et al.
# Submitted via: EasyCDDAExtractor 2010.4.0.0
#
DISCID=ab0a650c
DTITLE=Pegaus - 5'ern
DYEAR=1900
DGENRE=
TTITLE0=Her Kommer Tiger'n
TTITLE1=Regnet
TTITLE2=Bedre Føre Var
TTITLE3=Kall Det...Kjærlighet
TTITLE4=Når Jeg Ser'a Komme
TTITLE5=Roser and Liljer
TTITLE6=Du Får Prøve'n Hvis Du Spør
TTITLE7=Det Er Deg
TTITLE8=Jeg Prøver Meg
TTITLE9=En Dag
TTITLE10=Drømmen Om Deg
TTITLE11=Ingenting Imot Å Værra Mann
EXTD=
EXTT0=
EXTT1=
EXTT2=
EXTT3=
EXTT4=
EXTT5=
EXTT6=
EXTT7=
EXTT8=
EXTT9=
EXTT10=
EXTT11=
PLAYORDER=
